<?xml version="1.0" encoding="UTF-8" standalone="no"?><svg xmlns="http://www.w3.org/2000/svg" xmlns:xlink="http://www.w3.org/1999/xlink" contentScriptType="application/ecmascript" contentStyleType="text/css" height="338px" preserveAspectRatio="none" style="width:1851px;height:338px;" version="1.1" viewBox="0 0 1851 338" width="1851px" zoomAndPan="magnify"><defs><filter height="300%" id="f1xx4jj3j1z2t3" width="300%" x="-1" y="-1"><feGaussianBlur result="blurOut" stdDeviation="2.0"/><feColorMatrix in="blurOut" result="blurOut2" type="matrix" values="0 0 0 0 0 0 0 0 0 0 0 0 0 0 0 0 0 0 .4 0"/><feOffset dx="4.0" dy="4.0" in="blurOut2" result="blurOut3"/><feBlend in="SourceGraphic" in2="blurOut3" mode="normal"/></filter></defs><g><text fill="#000000" font-family="sans-serif" font-size="18" lengthAdjust="spacingAndGlyphs" textLength="207" x="825.5" y="16.708">Classes - Class Diagram</text><!--class AccountDAO--><rect fill="#FEFECE" filter="url(#f1xx4jj3j1z2t3)" height="48" id="AccountDAO" style="stroke: #A80036; stroke-width: 1.5;" width="109" x="6" y="126.9531"/><ellipse cx="21" cy="142.9531" fill="#ADD1B2" rx="11" ry="11" style="stroke: #A80036; stroke-width: 1.0;"/><path d="M23.3438,138.625 L23.5156,138.7031 C23.7344,138.3906 23.9375,138.2969 24.2344,138.2969 C24.5313,138.2969 24.8125,138.4375 24.9688,138.7031 C25.0625,138.8594 25.0781,138.9844 25.0781,139.4219 L25.0781,140.8438 C25.0781,141.2656 25.0469,141.4531 24.9375,141.6094 C24.7656,141.8281 24.5,141.9688 24.2344,141.9688 C24.0156,141.9688 23.7813,141.8594 23.6406,141.7188 C23.5,141.5938 23.4688,141.4688 23.4063,141.0625 C23.3125,140.6563 23.1406,140.4375 22.6563,140.1563 C22.1875,139.9063 21.5781,139.75 21,139.75 C19.2656,139.75 18.0156,141.0625 18.0156,142.8438 L18.0156,143.9375 C18.0156,145.6406 19.3125,146.7344 21.3594,146.7344 C22.125,146.7344 22.8125,146.6094 23.2344,146.3438 C23.4219,146.25 23.4219,146.25 23.875,145.7656 C24.0625,145.5781 24.2656,145.5 24.4844,145.5 C24.9531,145.5 25.3438,145.8906 25.3438,146.3438 C25.3438,146.7344 25.0156,147.1875 24.4375,147.5938 C23.6875,148.1406 22.5313,148.4375 21.3125,148.4375 C18.4219,148.4375 16.3125,146.5469 16.3125,143.9688 L16.3125,142.8438 C16.3125,140.125 18.3125,138.0469 20.9375,138.0469 C21.8125,138.0469 22.4063,138.1875 23.3438,138.625 Z "/><text fill="#000000" font-family="sans-serif" font-size="12" lengthAdjust="spacingAndGlyphs" textLength="77" x="35" y="147.1074">AccountDAO</text><line style="stroke: #A80036; stroke-width: 1.5;" x1="7" x2="114" y1="158.9531" y2="158.9531"/><line style="stroke: #A80036; stroke-width: 1.5;" x1="7" x2="114" y1="166.9531" y2="166.9531"/><!--class AccountService--><rect fill="#FEFECE" filter="url(#f1xx4jj3j1z2t3)" height="48" id="AccountService" style="stroke: #A80036; stroke-width: 1.5;" width="128" x="1250.5" y="126.9531"/><ellipse cx="1265.5" cy="142.9531" fill="#ADD1B2" rx="11" ry="11" style="stroke: #A80036; stroke-width: 1.0;"/><path d="M1267.8438,138.625 L1268.0156,138.7031 C1268.2344,138.3906 1268.4375,138.2969 1268.7344,138.2969 C1269.0313,138.2969 1269.3125,138.4375 1269.4688,138.7031 C1269.5625,138.8594 1269.5781,138.9844 1269.5781,139.4219 L1269.5781,140.8438 C1269.5781,141.2656 1269.5469,141.4531 1269.4375,141.6094 C1269.2656,141.8281 1269,141.9688 1268.7344,141.9688 C1268.5156,141.9688 1268.2813,141.8594 1268.1406,141.7188 C1268,141.5938 1267.9688,141.4688 1267.9063,141.0625 C1267.8125,140.6563 1267.6406,140.4375 1267.1563,140.1563 C1266.6875,139.9063 1266.0781,139.75 1265.5,139.75 C1263.7656,139.75 1262.5156,141.0625 1262.5156,142.8438 L1262.5156,143.9375 C1262.5156,145.6406 1263.8125,146.7344 1265.8594,146.7344 C1266.625,146.7344 1267.3125,146.6094 1267.7344,146.3438 C1267.9219,146.25 1267.9219,146.25 1268.375,145.7656 C1268.5625,145.5781 1268.7656,145.5 1268.9844,145.5 C1269.4531,145.5 1269.8438,145.8906 1269.8438,146.3438 C1269.8438,146.7344 1269.5156,147.1875 1268.9375,147.5938 C1268.1875,148.1406 1267.0313,148.4375 1265.8125,148.4375 C1262.9219,148.4375 1260.8125,146.5469 1260.8125,143.9688 L1260.8125,142.8438 C1260.8125,140.125 1262.8125,138.0469 1265.4375,138.0469 C1266.3125,138.0469 1266.9063,138.1875 1267.8438,138.625 Z "/><text fill="#000000" font-family="sans-serif" font-size="12" lengthAdjust="spacingAndGlyphs" textLength="96" x="1279.5" y="147.1074">AccountService</text><line style="stroke: #A80036; stroke-width: 1.5;" x1="1251.5" x2="1377.5" y1="158.9531" y2="158.9531"/><line style="stroke: #A80036; stroke-width: 1.5;" x1="1251.5" x2="1377.5" y1="166.9531" y2="166.9531"/><!--class Application--><rect fill="#FEFECE" filter="url(#f1xx4jj3j1z2t3)" height="48" id="Application" style="stroke: #A80036; stroke-width: 1.5;" width="101" x="1414" y="126.9531"/><ellipse cx="1429" cy="142.9531" fill="#ADD1B2" rx="11" ry="11" style="stroke: #A80036; stroke-width: 1.0;"/><path d="M1431.3438,138.625 L1431.5156,138.7031 C1431.7344,138.3906 1431.9375,138.2969 1432.2344,138.2969 C1432.5313,138.2969 1432.8125,138.4375 1432.9688,138.7031 C1433.0625,138.8594 1433.0781,138.9844 1433.0781,139.4219 L1433.0781,140.8438 C1433.0781,141.2656 1433.0469,141.4531 1432.9375,141.6094 C1432.7656,141.8281 1432.5,141.9688 1432.2344,141.9688 C1432.0156,141.9688 1431.7813,141.8594 1431.6406,141.7188 C1431.5,141.5938 1431.4688,141.4688 1431.4063,141.0625 C1431.3125,140.6563 1431.1406,140.4375 1430.6563,140.1563 C1430.1875,139.9063 1429.5781,139.75 1429,139.75 C1427.2656,139.75 1426.0156,141.0625 1426.0156,142.8438 L1426.0156,143.9375 C1426.0156,145.6406 1427.3125,146.7344 1429.3594,146.7344 C1430.125,146.7344 1430.8125,146.6094 1431.2344,146.3438 C1431.4219,146.25 1431.4219,146.25 1431.875,145.7656 C1432.0625,145.5781 1432.2656,145.5 1432.4844,145.5 C1432.9531,145.5 1433.3438,145.8906 1433.3438,146.3438 C1433.3438,146.7344 1433.0156,147.1875 1432.4375,147.5938 C1431.6875,148.1406 1430.5313,148.4375 1429.3125,148.4375 C1426.4219,148.4375 1424.3125,146.5469 1424.3125,143.9688 L1424.3125,142.8438 C1424.3125,140.125 1426.3125,138.0469 1428.9375,138.0469 C1429.8125,138.0469 1430.4063,138.1875 1431.3438,138.625 Z "/><text fill="#000000" font-family="sans-serif" font-size="12" lengthAdjust="spacingAndGlyphs" textLength="69" x="1443" y="147.1074">Application</text><line style="stroke: #A80036; stroke-width: 1.5;" x1="1415" x2="1514" y1="158.9531" y2="158.9531"/><line style="stroke: #A80036; stroke-width: 1.5;" x1="1415" x2="1514" y1="166.9531" y2="166.9531"/><!--class Account--><rect fill="#FEFECE" filter="url(#f1xx4jj3j1z2t3)" height="48" id="Account" style="stroke: #A80036; stroke-width: 1.5;" width="83" x="428" y="126.9531"/><ellipse cx="443" cy="142.9531" fill="#ADD1B2" rx="11" ry="11" style="stroke: #A80036; stroke-width: 1.0;"/><path d="M445.3438,138.625 L445.5156,138.7031 C445.7344,138.3906 445.9375,138.2969 446.2344,138.2969 C446.5313,138.2969 446.8125,138.4375 446.9688,138.7031 C447.0625,138.8594 447.0781,138.9844 447.0781,139.4219 L447.0781,140.8438 C447.0781,141.2656 447.0469,141.4531 446.9375,141.6094 C446.7656,141.8281 446.5,141.9688 446.2344,141.9688 C446.0156,141.9688 445.7813,141.8594 445.6406,141.7188 C445.5,141.5938 445.4688,141.4688 445.4063,141.0625 C445.3125,140.6563 445.1406,140.4375 444.6563,140.1563 C444.1875,139.9063 443.5781,139.75 443,139.75 C441.2656,139.75 440.0156,141.0625 440.0156,142.8438 L440.0156,143.9375 C440.0156,145.6406 441.3125,146.7344 443.3594,146.7344 C444.125,146.7344 444.8125,146.6094 445.2344,146.3438 C445.4219,146.25 445.4219,146.25 445.875,145.7656 C446.0625,145.5781 446.2656,145.5 446.4844,145.5 C446.9531,145.5 447.3438,145.8906 447.3438,146.3438 C447.3438,146.7344 447.0156,147.1875 446.4375,147.5938 C445.6875,148.1406 444.5313,148.4375 443.3125,148.4375 C440.4219,148.4375 438.3125,146.5469 438.3125,143.9688 L438.3125,142.8438 C438.3125,140.125 440.3125,138.0469 442.9375,138.0469 C443.8125,138.0469 444.4063,138.1875 445.3438,138.625 Z "/><text fill="#000000" font-family="sans-serif" font-size="12" lengthAdjust="spacingAndGlyphs" textLength="51" x="457" y="147.1074">Account</text><line style="stroke: #A80036; stroke-width: 1.5;" x1="429" x2="510" y1="158.9531" y2="158.9531"/><line style="stroke: #A80036; stroke-width: 1.5;" x1="429" x2="510" y1="166.9531" y2="166.9531"/><!--class Customer--><rect fill="#FEFECE" filter="url(#f1xx4jj3j1z2t3)" height="48" id="Customer" style="stroke: #A80036; stroke-width: 1.5;" width="92" x="150.5" y="126.9531"/><ellipse cx="165.5" cy="142.9531" fill="#ADD1B2" rx="11" ry="11" style="stroke: #A80036; stroke-width: 1.0;"/><path d="M167.8438,138.625 L168.0156,138.7031 C168.2344,138.3906 168.4375,138.2969 168.7344,138.2969 C169.0313,138.2969 169.3125,138.4375 169.4688,138.7031 C169.5625,138.8594 169.5781,138.9844 169.5781,139.4219 L169.5781,140.8438 C169.5781,141.2656 169.5469,141.4531 169.4375,141.6094 C169.2656,141.8281 169,141.9688 168.7344,141.9688 C168.5156,141.9688 168.2813,141.8594 168.1406,141.7188 C168,141.5938 167.9688,141.4688 167.9063,141.0625 C167.8125,140.6563 167.6406,140.4375 167.1563,140.1563 C166.6875,139.9063 166.0781,139.75 165.5,139.75 C163.7656,139.75 162.5156,141.0625 162.5156,142.8438 L162.5156,143.9375 C162.5156,145.6406 163.8125,146.7344 165.8594,146.7344 C166.625,146.7344 167.3125,146.6094 167.7344,146.3438 C167.9219,146.25 167.9219,146.25 168.375,145.7656 C168.5625,145.5781 168.7656,145.5 168.9844,145.5 C169.4531,145.5 169.8438,145.8906 169.8438,146.3438 C169.8438,146.7344 169.5156,147.1875 168.9375,147.5938 C168.1875,148.1406 167.0313,148.4375 165.8125,148.4375 C162.9219,148.4375 160.8125,146.5469 160.8125,143.9688 L160.8125,142.8438 C160.8125,140.125 162.8125,138.0469 165.4375,138.0469 C166.3125,138.0469 166.9063,138.1875 167.8438,138.625 Z "/><text fill="#000000" font-family="sans-serif" font-size="12" lengthAdjust="spacingAndGlyphs" textLength="60" x="179.5" y="147.1074">Customer</text><line style="stroke: #A80036; stroke-width: 1.5;" x1="151.5" x2="241.5" y1="158.9531" y2="158.9531"/><line style="stroke: #A80036; stroke-width: 1.5;" x1="151.5" x2="241.5" y1="166.9531" y2="166.9531"/><!--class AccountEntry--><rect fill="#FEFECE" filter="url(#f1xx4jj3j1z2t3)" height="48" id="AccountEntry" style="stroke: #A80036; stroke-width: 1.5;" width="115" x="278" y="126.9531"/><ellipse cx="293" cy="142.9531" fill="#ADD1B2" rx="11" ry="11" style="stroke: #A80036; stroke-width: 1.0;"/><path d="M295.3438,138.625 L295.5156,138.7031 C295.7344,138.3906 295.9375,138.2969 296.2344,138.2969 C296.5313,138.2969 296.8125,138.4375 296.9688,138.7031 C297.0625,138.8594 297.0781,138.9844 297.0781,139.4219 L297.0781,140.8438 C297.0781,141.2656 297.0469,141.4531 296.9375,141.6094 C296.7656,141.8281 296.5,141.9688 296.2344,141.9688 C296.0156,141.9688 295.7813,141.8594 295.6406,141.7188 C295.5,141.5938 295.4688,141.4688 295.4063,141.0625 C295.3125,140.6563 295.1406,140.4375 294.6563,140.1563 C294.1875,139.9063 293.5781,139.75 293,139.75 C291.2656,139.75 290.0156,141.0625 290.0156,142.8438 L290.0156,143.9375 C290.0156,145.6406 291.3125,146.7344 293.3594,146.7344 C294.125,146.7344 294.8125,146.6094 295.2344,146.3438 C295.4219,146.25 295.4219,146.25 295.875,145.7656 C296.0625,145.5781 296.2656,145.5 296.4844,145.5 C296.9531,145.5 297.3438,145.8906 297.3438,146.3438 C297.3438,146.7344 297.0156,147.1875 296.4375,147.5938 C295.6875,148.1406 294.5313,148.4375 293.3125,148.4375 C290.4219,148.4375 288.3125,146.5469 288.3125,143.9688 L288.3125,142.8438 C288.3125,140.125 290.3125,138.0469 292.9375,138.0469 C293.8125,138.0469 294.4063,138.1875 295.3438,138.625 Z "/><text fill="#000000" font-family="sans-serif" font-size="12" lengthAdjust="spacingAndGlyphs" textLength="83" x="307" y="147.1074">AccountEntry</text><line style="stroke: #A80036; stroke-width: 1.5;" x1="279" x2="392" y1="158.9531" y2="158.9531"/><line style="stroke: #A80036; stroke-width: 1.5;" x1="279" x2="392" y1="166.9531" y2="166.9531"/><!--class AbstractObservable--><rect fill="#FEFECE" filter="url(#f1xx4jj3j1z2t3)" height="99.2188" id="AbstractObservable" style="stroke: #A80036; stroke-width: 1.5;" width="301" x="914" y="101.4531"/><ellipse cx="1000.25" cy="117.4531" fill="#A9DCDF" rx="11" ry="11" style="stroke: #A80036; stroke-width: 1.0;"/><path d="M1001.8281,119.2656 L997.7813,119.2656 L997.3906,120.25 L997.7813,120.25 C998.2344,120.25 998.375,120.2813 998.5469,120.4063 C998.7656,120.5781 998.8906,120.8281 998.8906,121.1094 C998.8906,121.3906 998.75,121.6875 998.4844,121.8281 C998.3594,121.9219 998.1406,121.9531 997.7813,121.9531 L995.5156,121.9531 C994.7656,121.9531 994.3906,121.6719 994.3906,121.1094 C994.3906,120.8125 994.5469,120.5313 994.7969,120.375 C994.9531,120.2656 995.1094,120.25 995.5313,120.25 L998.1719,113.7344 L997.0938,113.7344 C996.6563,113.7344 996.4844,113.7031 996.3125,113.5938 C996.0938,113.4219 995.9531,113.1719 995.9531,112.8906 C995.9531,112.6094 996.1094,112.3281 996.3594,112.1563 C996.5156,112.0625 996.6406,112.0469 997.0938,112.0469 L1000.7656,112.0469 L1004.1563,120.25 C1004.625,120.25 1004.7813,120.2813 1004.9531,120.4219 C1005.1719,120.5781 1005.3125,120.8281 1005.3125,121.1094 C1005.3125,121.3906 1005.1563,121.6875 1004.9063,121.8281 C1004.7656,121.9219 1004.5469,121.9531 1004.1875,121.9531 L1001.8281,121.9531 C1001.4063,121.9531 1001.2031,121.9063 1001.0625,121.7813 C1000.8438,121.625 1000.7031,121.375 1000.7031,121.1094 C1000.7031,120.8125 1000.8594,120.5313 1001.1094,120.375 C1001.2656,120.2656 1001.375,120.25 1001.8281,120.25 L1002.2188,120.25 Z M1001.125,117.5625 L999.7969,114.2969 L998.4531,117.5625 Z "/><text fill="#000000" font-family="sans-serif" font-size="12" font-style="italic" lengthAdjust="spacingAndGlyphs" textLength="120" x="1020.75" y="121.6074">AbstractObservable</text><line style="stroke: #A80036; stroke-width: 1.5;" x1="915" x2="1214" y1="133.4531" y2="133.4531"/><line style="stroke: #A80036; stroke-width: 1.5;" x1="915" x2="1214" y1="141.4531" y2="141.4531"/><text fill="#000000" font-family="sans-serif" font-size="11" lengthAdjust="spacingAndGlyphs" textLength="277" x="920" y="155.6636">List&lt;Observer&gt; observers = new ArrayList&lt;&gt;();</text><text fill="#000000" font-family="sans-serif" font-size="11" lengthAdjust="spacingAndGlyphs" textLength="190" x="920" y="168.4683">addObserver(Observer observer)</text><text fill="#000000" font-family="sans-serif" font-size="11" lengthAdjust="spacingAndGlyphs" textLength="212" x="920" y="181.2729">removeObserver(Observer observer)</text><text fill="#000000" font-family="sans-serif" font-size="11" lengthAdjust="spacingAndGlyphs" textLength="289" x="920" y="194.0776">notifyAllObsesrver(String command,Object source)</text><!--class Observable--><rect fill="#FEFECE" filter="url(#f1xx4jj3j1z2t3)" height="137.6328" id="Observable" style="stroke: #A80036; stroke-width: 1.5;" width="332" x="546.5" y="81.9531"/><ellipse cx="674.25" cy="97.9531" fill="#B4A7E5" rx="11" ry="11" style="stroke: #A80036; stroke-width: 1.0;"/><path d="M675.2031,94.7344 L675.2031,101.25 L676.9219,101.25 C677.375,101.25 677.5156,101.2813 677.6875,101.4063 C677.9219,101.5781 678.0313,101.8281 678.0313,102.1094 C678.0313,102.6719 677.6719,102.9531 676.9219,102.9531 L671.7813,102.9531 C671.375,102.9531 671.1719,102.9063 671.0156,102.7813 C670.7969,102.625 670.6563,102.3594 670.6563,102.1094 C670.6563,101.8125 670.8125,101.5313 671.0625,101.375 C671.2188,101.2656 671.3438,101.25 671.7813,101.25 L673.5,101.25 L673.5,94.7344 L671.7813,94.7344 C671.3594,94.7344 671.1719,94.7031 671.0156,94.5938 C670.7969,94.4219 670.6563,94.1719 670.6563,93.8906 C670.6563,93.6094 670.8125,93.3125 671.0625,93.1563 C671.2188,93.0625 671.3438,93.0469 671.7813,93.0469 L676.9219,93.0469 C677.375,93.0469 677.5156,93.0781 677.6875,93.1875 C677.9219,93.3594 678.0313,93.625 678.0313,93.8906 C678.0313,94.1875 677.8906,94.4688 677.625,94.625 C677.5,94.7031 677.3125,94.7344 676.9219,94.7344 Z "/><text fill="#000000" font-family="sans-serif" font-size="12" font-style="italic" lengthAdjust="spacingAndGlyphs" textLength="68" x="694.75" y="102.1074">Observable</text><line style="stroke: #A80036; stroke-width: 1.5;" x1="547.5" x2="877.5" y1="113.9531" y2="113.9531"/><line style="stroke: #A80036; stroke-width: 1.5;" x1="547.5" x2="877.5" y1="121.9531" y2="121.9531"/><text fill="#000000" font-family="sans-serif" font-size="11" lengthAdjust="spacingAndGlyphs" textLength="320" x="552.5" y="136.1636">void notifyAllObsesrver(String command,Object source);</text><text fill="#000000" font-family="sans-serif" font-size="11" lengthAdjust="spacingAndGlyphs" textLength="225" x="552.5" y="148.9683">void addObserver(Observer observer) ;</text><text fill="#000000" font-family="sans-serif" font-size="11" lengthAdjust="spacingAndGlyphs" textLength="243" x="552.5" y="161.7729">void removeObserver(Observer observer);</text><text fill="#000000" font-family="sans-serif" font-size="11" lengthAdjust="spacingAndGlyphs" textLength="0" x="556.5" y="174.5776"/><text fill="#000000" font-family="sans-serif" font-size="11" lengthAdjust="spacingAndGlyphs" textLength="293" x="552.5" y="187.3823">notifyAllObsesrver(String command,Object source);</text><text fill="#000000" font-family="sans-serif" font-size="11" lengthAdjust="spacingAndGlyphs" textLength="198" x="552.5" y="200.187">addObserver(Observer observer) ;</text><text fill="#000000" font-family="sans-serif" font-size="11" lengthAdjust="spacingAndGlyphs" textLength="216" x="552.5" y="212.9917">removeObserver(Observer observer);</text><!--class Observer--><rect fill="#FEFECE" filter="url(#f1xx4jj3j1z2t3)" height="60.8047" id="Observer" style="stroke: #A80036; stroke-width: 1.5;" width="248" x="1550.5" y="120.4531"/><ellipse cx="1643.25" cy="136.4531" fill="#B4A7E5" rx="11" ry="11" style="stroke: #A80036; stroke-width: 1.0;"/><path d="M1644.2031,133.2344 L1644.2031,139.75 L1645.9219,139.75 C1646.375,139.75 1646.5156,139.7813 1646.6875,139.9063 C1646.9219,140.0781 1647.0313,140.3281 1647.0313,140.6094 C1647.0313,141.1719 1646.6719,141.4531 1645.9219,141.4531 L1640.7813,141.4531 C1640.375,141.4531 1640.1719,141.4063 1640.0156,141.2813 C1639.7969,141.125 1639.6563,140.8594 1639.6563,140.6094 C1639.6563,140.3125 1639.8125,140.0313 1640.0625,139.875 C1640.2188,139.7656 1640.3438,139.75 1640.7813,139.75 L1642.5,139.75 L1642.5,133.2344 L1640.7813,133.2344 C1640.3594,133.2344 1640.1719,133.2031 1640.0156,133.0938 C1639.7969,132.9219 1639.6563,132.6719 1639.6563,132.3906 C1639.6563,132.1094 1639.8125,131.8125 1640.0625,131.6563 C1640.2188,131.5625 1640.3438,131.5469 1640.7813,131.5469 L1645.9219,131.5469 C1646.375,131.5469 1646.5156,131.5781 1646.6875,131.6875 C1646.9219,131.8594 1647.0313,132.125 1647.0313,132.3906 C1647.0313,132.6875 1646.8906,132.9688 1646.625,133.125 C1646.5,133.2031 1646.3125,133.2344 1645.9219,133.2344 Z "/><text fill="#000000" font-family="sans-serif" font-size="12" font-style="italic" lengthAdjust="spacingAndGlyphs" textLength="54" x="1663.75" y="140.6074">Observer</text><line style="stroke: #A80036; stroke-width: 1.5;" x1="1551.5" x2="1797.5" y1="152.4531" y2="152.4531"/><line style="stroke: #A80036; stroke-width: 1.5;" x1="1551.5" x2="1797.5" y1="160.4531" y2="160.4531"/><text fill="#000000" font-family="sans-serif" font-size="11" lengthAdjust="spacingAndGlyphs" textLength="236" x="1556.5" y="174.6636">void notify(String change, Object source);</text><!--class SMSSender--><rect fill="#FEFECE" filter="url(#f1xx4jj3j1z2t3)" height="48" id="SMSSender" style="stroke: #A80036; stroke-width: 1.5;" width="103" x="1481" y="279.9531"/><ellipse cx="1496" cy="295.9531" fill="#ADD1B2" rx="11" ry="11" style="stroke: #A80036; stroke-width: 1.0;"/><path d="M1498.3438,291.625 L1498.5156,291.7031 C1498.7344,291.3906 1498.9375,291.2969 1499.2344,291.2969 C1499.5313,291.2969 1499.8125,291.4375 1499.9688,291.7031 C1500.0625,291.8594 1500.0781,291.9844 1500.0781,292.4219 L1500.0781,293.8438 C1500.0781,294.2656 1500.0469,294.4531 1499.9375,294.6094 C1499.7656,294.8281 1499.5,294.9688 1499.2344,294.9688 C1499.0156,294.9688 1498.7813,294.8594 1498.6406,294.7188 C1498.5,294.5938 1498.4688,294.4688 1498.4063,294.0625 C1498.3125,293.6563 1498.1406,293.4375 1497.6563,293.1563 C1497.1875,292.9063 1496.5781,292.75 1496,292.75 C1494.2656,292.75 1493.0156,294.0625 1493.0156,295.8438 L1493.0156,296.9375 C1493.0156,298.6406 1494.3125,299.7344 1496.3594,299.7344 C1497.125,299.7344 1497.8125,299.6094 1498.2344,299.3438 C1498.4219,299.25 1498.4219,299.25 1498.875,298.7656 C1499.0625,298.5781 1499.2656,298.5 1499.4844,298.5 C1499.9531,298.5 1500.3438,298.8906 1500.3438,299.3438 C1500.3438,299.7344 1500.0156,300.1875 1499.4375,300.5938 C1498.6875,301.1406 1497.5313,301.4375 1496.3125,301.4375 C1493.4219,301.4375 1491.3125,299.5469 1491.3125,296.9688 L1491.3125,295.8438 C1491.3125,293.125 1493.3125,291.0469 1495.9375,291.0469 C1496.8125,291.0469 1497.4063,291.1875 1498.3438,291.625 Z "/><text fill="#000000" font-family="sans-serif" font-size="12" lengthAdjust="spacingAndGlyphs" textLength="71" x="1510" y="300.1074">SMSSender</text><line style="stroke: #A80036; stroke-width: 1.5;" x1="1482" x2="1583" y1="311.9531" y2="311.9531"/><line style="stroke: #A80036; stroke-width: 1.5;" x1="1482" x2="1583" y1="319.9531" y2="319.9531"/><!--class EmailSender--><rect fill="#FEFECE" filter="url(#f1xx4jj3j1z2t3)" height="48" id="EmailSender" style="stroke: #A80036; stroke-width: 1.5;" width="110" x="1619.5" y="279.9531"/><ellipse cx="1634.5" cy="295.9531" fill="#ADD1B2" rx="11" ry="11" style="stroke: #A80036; stroke-width: 1.0;"/><path d="M1636.8438,291.625 L1637.0156,291.7031 C1637.2344,291.3906 1637.4375,291.2969 1637.7344,291.2969 C1638.0313,291.2969 1638.3125,291.4375 1638.4688,291.7031 C1638.5625,291.8594 1638.5781,291.9844 1638.5781,292.4219 L1638.5781,293.8438 C1638.5781,294.2656 1638.5469,294.4531 1638.4375,294.6094 C1638.2656,294.8281 1638,294.9688 1637.7344,294.9688 C1637.5156,294.9688 1637.2813,294.8594 1637.1406,294.7188 C1637,294.5938 1636.9688,294.4688 1636.9063,294.0625 C1636.8125,293.6563 1636.6406,293.4375 1636.1563,293.1563 C1635.6875,292.9063 1635.0781,292.75 1634.5,292.75 C1632.7656,292.75 1631.5156,294.0625 1631.5156,295.8438 L1631.5156,296.9375 C1631.5156,298.6406 1632.8125,299.7344 1634.8594,299.7344 C1635.625,299.7344 1636.3125,299.6094 1636.7344,299.3438 C1636.9219,299.25 1636.9219,299.25 1637.375,298.7656 C1637.5625,298.5781 1637.7656,298.5 1637.9844,298.5 C1638.4531,298.5 1638.8438,298.8906 1638.8438,299.3438 C1638.8438,299.7344 1638.5156,300.1875 1637.9375,300.5938 C1637.1875,301.1406 1636.0313,301.4375 1634.8125,301.4375 C1631.9219,301.4375 1629.8125,299.5469 1629.8125,296.9688 L1629.8125,295.8438 C1629.8125,293.125 1631.8125,291.0469 1634.4375,291.0469 C1635.3125,291.0469 1635.9063,291.1875 1636.8438,291.625 Z "/><text fill="#000000" font-family="sans-serif" font-size="12" lengthAdjust="spacingAndGlyphs" textLength="78" x="1648.5" y="300.1074">EmailSender</text><line style="stroke: #A80036; stroke-width: 1.5;" x1="1620.5" x2="1728.5" y1="311.9531" y2="311.9531"/><line style="stroke: #A80036; stroke-width: 1.5;" x1="1620.5" x2="1728.5" y1="319.9531" y2="319.9531"/><!--class Logger--><rect fill="#FEFECE" filter="url(#f1xx4jj3j1z2t3)" height="48" id="Logger" style="stroke: #A80036; stroke-width: 1.5;" width="75" x="1765" y="279.9531"/><ellipse cx="1780" cy="295.9531" fill="#ADD1B2" rx="11" ry="11" style="stroke: #A80036; stroke-width: 1.0;"/><path d="M1782.3438,291.625 L1782.5156,291.7031 C1782.7344,291.3906 1782.9375,291.2969 1783.2344,291.2969 C1783.5313,291.2969 1783.8125,291.4375 1783.9688,291.7031 C1784.0625,291.8594 1784.0781,291.9844 1784.0781,292.4219 L1784.0781,293.8438 C1784.0781,294.2656 1784.0469,294.4531 1783.9375,294.6094 C1783.7656,294.8281 1783.5,294.9688 1783.2344,294.9688 C1783.0156,294.9688 1782.7813,294.8594 1782.6406,294.7188 C1782.5,294.5938 1782.4688,294.4688 1782.4063,294.0625 C1782.3125,293.6563 1782.1406,293.4375 1781.6563,293.1563 C1781.1875,292.9063 1780.5781,292.75 1780,292.75 C1778.2656,292.75 1777.0156,294.0625 1777.0156,295.8438 L1777.0156,296.9375 C1777.0156,298.6406 1778.3125,299.7344 1780.3594,299.7344 C1781.125,299.7344 1781.8125,299.6094 1782.2344,299.3438 C1782.4219,299.25 1782.4219,299.25 1782.875,298.7656 C1783.0625,298.5781 1783.2656,298.5 1783.4844,298.5 C1783.9531,298.5 1784.3438,298.8906 1784.3438,299.3438 C1784.3438,299.7344 1784.0156,300.1875 1783.4375,300.5938 C1782.6875,301.1406 1781.5313,301.4375 1780.3125,301.4375 C1777.4219,301.4375 1775.3125,299.5469 1775.3125,296.9688 L1775.3125,295.8438 C1775.3125,293.125 1777.3125,291.0469 1779.9375,291.0469 C1780.8125,291.0469 1781.4063,291.1875 1782.3438,291.625 Z "/><text fill="#000000" font-family="sans-serif" font-size="12" lengthAdjust="spacingAndGlyphs" textLength="43" x="1794" y="300.1074">Logger</text><line style="stroke: #A80036; stroke-width: 1.5;" x1="1766" x2="1839" y1="311.9531" y2="311.9531"/><line style="stroke: #A80036; stroke-width: 1.5;" x1="1766" x2="1839" y1="319.9531" y2="319.9531"/><!--link AccountDAO to AccountService--><path d="M76.9794,122.5181 C92.6061,98.6681 118.502,66.2761 151,51.9531 C205.091,28.1141 1160.36,29.4011 1215,51.9531 C1251.49,67.0141 1281.64,102.6581 1298.87,126.8041 " fill="none" id="AccountDAO-AccountService" style="stroke: #A80036; stroke-width: 1.0;"/><polygon fill="#A80036" points="74.1818,126.8661,82.4158,121.4623,76.8875,122.6615,75.6883,117.1332,74.1818,126.8661" style="stroke: #A80036; stroke-width: 1.0;"/><!--link Account to AccountService--><path d="M482.98,121.9071 C495.748,98.2111 517.381,66.3811 547,51.9531 C613.726,19.4481 1146.39,23.6361 1215,51.9531 C1251.49,67.0141 1281.64,102.6581 1298.87,126.8041 " fill="none" id="Account-AccountService" style="stroke: #A80036; stroke-width: 1.0;"/><polygon fill="#A80036" points="480.545,126.5301,488.2779,120.4308,482.8749,122.1061,481.1995,116.703,480.545,126.5301" style="stroke: #A80036; stroke-width: 1.0;"/><!--link Customer to Account--><path d="M210.806,122.3051 C224.443,98.5381 247.424,66.3861 278,51.9531 C324.221,30.1351 347.122,29.4251 393,51.9531 C424.391,67.3671 446.555,102.5501 458.683,126.5391 " fill="none" id="Customer-Account" style="stroke: #A80036; stroke-width: 1.0;"/><polygon fill="#A80036" points="208.204,126.9391,216.0986,121.0506,210.6523,122.5796,209.1233,117.1333,208.204,126.9391" style="stroke: #A80036; stroke-width: 1.0;"/><!--link AccountEntry to Account--><path d="M398.218,150.9531 C408.048,150.9531 417.877,150.9531 427.707,150.9531 " fill="none" id="AccountEntry-Account" style="stroke: #A80036; stroke-width: 1.0;"/><polygon fill="#A80036" points="393.078,150.9531,402.078,154.9531,398.078,150.9531,402.078,146.9531,393.078,150.9531" style="stroke: #A80036; stroke-width: 1.0;"/><!--link Observable to AbstractObservable--><path d="M898.625,150.9531 C903.671,150.9531 908.717,150.9531 913.764,150.9531 " fill="none" id="Observable-AbstractObservable" style="stroke: #A80036; stroke-width: 1.0;"/><polygon fill="none" points="898.531,157.9531,878.531,150.9531,898.531,143.9531,898.531,157.9531" style="stroke: #A80036; stroke-width: 1.0;"/><!--link AbstractObservable to AccountService--><path d="M1220.55,150.9531 C1230.44,150.9531 1240.33,150.9531 1250.23,150.9531 " fill="none" id="AbstractObservable-AccountService" style="stroke: #A80036; stroke-width: 1.0;"/><polygon fill="#A80036" points="1215.38,150.9531,1224.38,154.9531,1220.38,150.9531,1224.38,146.9531,1215.38,150.9531" style="stroke: #A80036; stroke-width: 1.0;"/><!--link AccountService to Application--><path d="M1383.89,150.9531 C1393.88,150.9531 1403.87,150.9531 1413.87,150.9531 " fill="none" id="AccountService-Application" style="stroke: #A80036; stroke-width: 1.0;"/><polygon fill="#A80036" points="1378.66,150.9531,1387.66,154.9531,1383.66,150.9531,1387.66,146.9531,1378.66,150.9531" style="stroke: #A80036; stroke-width: 1.0;"/><!--link Observer to SMSSender--><path d="M1632.57,196.5381 C1606.95,223.7841 1575.22,257.5215 1554.45,279.6103 " fill="none" id="Observer-SMSSender" style="stroke: #A80036; stroke-width: 1.0;"/><polygon fill="none" points="1627.64,191.5601,1646.45,181.7861,1637.84,201.1511,1627.64,191.5601" style="stroke: #A80036; stroke-width: 1.0;"/><!--link Observer to EmailSender--><path d="M1674.5,201.9381 C1674.5,228.1282 1674.5,258.9598 1674.5,279.6103 " fill="none" id="Observer-EmailSender" style="stroke: #A80036; stroke-width: 1.0;"/><polygon fill="none" points="1667.5,201.7861,1674.5,181.7861,1681.5,201.7861,1667.5,201.7861" style="stroke: #A80036; stroke-width: 1.0;"/><!--link Observer to Logger--><path d="M1712.94,197.3001 C1735.92,224.4101 1764.16,257.727 1782.71,279.6103 " fill="none" id="Observer-Logger" style="stroke: #A80036; stroke-width: 1.0;"/><polygon fill="none" points="1707.38,201.5681,1699.79,181.7861,1718.06,192.5161,1707.38,201.5681" style="stroke: #A80036; stroke-width: 1.0;"/><!--
@startuml
title Classes - Class Diagram


 
class AccountDAO
class AccountService
class Application
class Account
class Customer
class AccountEntry

abstract class AbstractObservable{
     List<Observer> observers = new ArrayList<>();
     addObserver(Observer observer)
     removeObserver(Observer observer)
     notifyAllObsesrver(String command,Object source)
    
    
}

interface Observable {
     void notifyAllObsesrver(String command,Object source);
     void addObserver(Observer observer) ;
     void removeObserver(Observer observer);

}

interface Observer {
     void notify(String change, Object source);
}


interface Observable {
    notifyAllObsesrver(String command,Object source);
     addObserver(Observer observer) ;
     removeObserver(Observer observer);
} 



AccountDAO <- AccountService
Account <- AccountService
Customer <- Account
AccountEntry <- Account

Observable <|- AbstractObservable

AbstractObservable <-  AccountService
AccountService <- Application
class SMSSender
class EmailSender
class Logger


Observer <|- - SMSSender
Observer <|- - EmailSender
Observer <|- - Logger
@enduml

PlantUML version 1.2019.07(Mon Jun 24 19:59:20 UTC 2019)
(GPL source distribution)
Java Runtime: Java(TM) SE Runtime Environment
JVM: Java HotSpot(TM) 64-Bit Server VM
Java Version: 1.7.0_25-b15
Operating System: Linux
Default Encoding: UTF-8
Language: en
Country: US
--></g></svg>